<?xml version="1.0" standalone="no"?><!DOCTYPE svg PUBLIC "-//W3C//DTD SVG 1.1//EN" "http://www.w3.org/Graphics/SVG/1.1/DTD/svg11.dtd"><svg t="1526621254529" class="icon" style="" viewBox="0 0 1024 1024" version="1.1" xmlns="http://www.w3.org/2000/svg" p-id="2648" xmlns:xlink="http://www.w3.org/1999/xlink" width="200" height="200"><defs><style type="text/css"></style></defs><path d="M824.888889 56.888889H199.111111C119.466667 56.888889 56.888889 119.466667 56.888889 199.111111v426.666667c0 79.644444 62.577778 142.222222 142.222222 142.222222h56.888889v142.222222c0 11.377778 5.688889 22.755556 17.066667 25.6 11.377778 5.688889 22.755556 2.844444 31.288889-5.688889l162.133333-162.133333H824.888889c79.644444 0 142.222222-62.577778 142.222222-142.222222V199.111111c0-79.644444-62.577778-142.222222-142.222222-142.222222z m85.333333 568.888889c0 48.355556-36.977778 85.333333-85.333333 85.333333H455.111111l-19.911111 8.533333-122.311111 122.311112V739.555556c0-14.222222-14.222222-28.444444-28.444445-28.444445H199.111111c-48.355556 0-85.333333-36.977778-85.333333-85.333333V199.111111c0-48.355556 36.977778-85.333333 85.333333-85.333333h625.777778c48.355556 0 85.333333 36.977778 85.333333 85.333333v426.666667z" p-id="2649" fill="#ffffff"></path></svg>