<?xml version="1.0" standalone="no"?><!DOCTYPE svg PUBLIC "-//W3C//DTD SVG 1.1//EN" "http://www.w3.org/Graphics/SVG/1.1/DTD/svg11.dtd"><svg t="1526613941238" class="icon" style="" viewBox="0 0 1024 1024" version="1.1" xmlns="http://www.w3.org/2000/svg" p-id="1197" xmlns:xlink="http://www.w3.org/1999/xlink" width="200" height="200"><defs><style type="text/css"></style></defs><path d="M843.015085 183.660767H292.397672c-50.962822 0-90.370828 39.043117-90.370828 90.370828v123.454092l-111.412757 126.373204 111.412757 129.413944v102.412163c0 50.962822 39.043117 90.370828 90.370828 90.370828h550.617413c50.962822 0 90.370828-39.043117 90.370828-90.370828V273.666706c0-50.962822-38.921487-90.005939-90.370828-90.005939zM421.811617 604.985865c-49.746526 0-90.370828-40.259413-90.370828-90.370828 0-49.746526 40.259413-90.370828 90.370828-90.370827 49.746526 0 90.370828 40.259413 90.370827 90.370827 0 49.624896-40.745932 90.370828-90.370827 90.370828zM812.972562 514.493408c0 49.746526-40.259413 90.370828-90.370828 90.370828-49.746526 0-90.370828-40.259413-90.370828-90.370828 0-49.746526 40.259413-90.370828 90.370828-90.370828s90.370828 40.745932 90.370828 90.370828z m0 0" fill="#9BA9CD" p-id="1198"></path></svg>