<?xml version="1.0" standalone="no"?><!DOCTYPE svg PUBLIC "-//W3C//DTD SVG 1.1//EN"
        "http://www.w3.org/Graphics/SVG/1.1/DTD/svg11.dtd">
<svg t="1526621230960" class="icon" style="" viewBox="0 0 1024 1024" version="1.1" xmlns="http://www.w3.org/2000/svg"
     p-id="1897" xmlns:xlink="http://www.w3.org/1999/xlink" width="200" height="200">
    <defs>
        <style type="text/css"></style>
    </defs>
    <path d="M508.783 948.541c-4.998 0-9.607-1.098-13.7-3.262-59.829-29.748-168.302-110.899-265.239-218.887-50.848-56.644-91.277-112.651-120.164-166.465-33.726-62.83-50.828-121.363-50.828-173.973 0-108.376 50.56-170.902 92.975-204.272 47.115-37.068 111.558-59.198 172.383-59.198 37.787 0 76.863 11.6 116.144 34.479 28.827 16.789 52.34 36.521 68.427 51.785 16.087-15.265 39.6-34.996 68.427-51.785 39.281-22.878 78.354-34.479 116.137-34.479 60.826 0 125.271 22.13 172.387 59.198 42.416 33.369 92.978 95.896 92.978 204.272 0 52.606-17.099 111.139-50.824 173.973-28.879 53.804-69.296 109.813-120.132 166.464-96.908 107.997-205.344 189.197-265.083 218.939-4.382 2.141-9.036 3.211-13.889 3.211zM324.213 183.404c-82.017 0-204.038 53.943-204.038 202.549 0 186.876 268.956 430.489 388.61 497.763 119.632-67.262 388.538-310.86 388.538-497.763 0-148.607-121.982-202.549-203.974-202.549-43.249 0-83.864 23.238-110.321 42.733-28.974 21.35-47.965 43.058-50.166 45.625l-0.081 0.132-0.485 0.55c-5.936 6.743-14.725 10.767-23.514 10.767-8.781 0-17.57-4.023-23.513-10.762l-0.357-0.405-0.076-0.112c-3.783-4.395-77.925-88.528-160.625-88.528z"
          p-id="1898" fill="#ffffff"></path>
</svg>